<svg width="150" height="150" viewBox="0 0 150 150" fill="none" xmlns="http://www.w3.org/2000/svg">
<path d="M121.574 5H27.8242C24.6894 5.00388 21.6841 6.25088 19.4675 8.46751C17.2509 10.6841 16.0039 13.6894 16 16.8242V73.6601C16.0054 76.7937 17.2532 79.7971 19.4698 82.012C21.6863 84.2269 24.6907 85.4725 27.8242 85.4756H66.4961C66.5062 85.476 66.516 85.4789 66.5246 85.484C66.5333 85.4891 66.5406 85.4963 66.5459 85.5049L71.1719 92.8291C71.547 93.4221 72.0661 93.9105 72.6808 94.249C73.2955 94.5875 73.9858 94.765 74.6875 94.765C75.3892 94.765 76.0795 94.5875 76.6942 94.249C77.3089 93.9105 77.8279 93.4221 78.2031 92.8291L82.8291 85.5049C82.8339 85.4959 82.8411 85.4884 82.8499 85.4832C82.8587 85.4781 82.8687 85.4754 82.8789 85.4756H121.806C124.879 85.4725 127.825 84.2505 129.999 82.0777C132.172 79.905 133.395 76.9589 133.398 73.8857V16.8242C133.395 13.6894 132.148 10.6841 129.931 8.46751C127.714 6.25088 124.709 5.00388 121.574 5ZM129.297 73.8857C129.294 75.8713 128.503 77.7746 127.099 79.1784C125.695 80.5821 123.791 81.3717 121.806 81.374H82.9023C82.1986 81.3743 81.5065 81.5539 80.8914 81.8958C80.2763 82.2376 79.7585 82.7306 79.3867 83.3281L74.7637 90.6523C74.7574 90.6603 74.7493 90.6667 74.7402 90.6711C74.7311 90.6755 74.7211 90.6778 74.7109 90.6778C74.7008 90.6778 74.6908 90.6755 74.6817 90.6711C74.6725 90.6667 74.6645 90.6603 74.6582 90.6523L70.0117 83.3281C69.6385 82.7328 69.1201 82.2421 68.5051 81.9023C67.89 81.5626 67.1987 81.3848 66.4961 81.3857H27.8242C25.776 81.3842 23.8122 80.5696 22.3642 79.1211C20.9161 77.6725 20.1023 75.7084 20.1016 73.6601V16.8242C20.1039 14.7768 20.9183 12.8138 22.366 11.366C23.8138 9.91827 25.7768 9.10389 27.8242 9.10156H121.574C123.622 9.10389 125.585 9.91827 127.032 11.366C128.48 12.8138 129.295 14.7768 129.297 16.8242V73.8857Z" fill="#2E7D32"/>
<path d="M118.22 98.4248H112.961V97.6601C112.961 97.2319 112.827 96.8144 112.578 96.466C112.329 96.1177 111.978 95.856 111.572 95.7178C107.033 94.3134 102.302 93.6322 97.5508 93.6992C88.1611 93.8369 80.4355 97.1504 75.0479 103.314C69.6572 97.1621 61.9316 93.8369 52.542 93.6992C47.7885 93.6348 43.0543 94.316 38.5117 95.7178C38.107 95.8565 37.7558 96.1184 37.5073 96.4667C37.2588 96.815 37.1255 97.2323 37.126 97.6601V98.4248H31.7412C31.1973 98.4248 30.6757 98.6409 30.2911 99.0255C29.9065 99.41 29.6904 99.9317 29.6904 100.476V147.705C29.6904 147.778 29.6904 147.849 29.6904 147.919L29.708 148.027C29.708 148.08 29.7256 148.13 29.7373 148.18L29.7637 148.285C29.7871 148.358 29.8105 148.426 29.8369 148.493C29.8382 148.505 29.8382 148.517 29.8369 148.528L29.875 148.599C29.8984 148.645 29.9219 148.692 29.9482 148.739C29.9746 148.786 29.9863 148.798 30.0039 148.827C30.0458 148.893 30.0918 148.955 30.1416 149.015L30.1943 149.073C30.2383 149.12 30.2822 149.167 30.3291 149.211L30.3848 149.261C30.4493 149.317 30.5179 149.369 30.5898 149.416L30.6191 149.434C30.6858 149.477 30.7553 149.516 30.8271 149.551L30.8711 149.571C30.9536 149.61 31.0388 149.642 31.126 149.668C31.2069 149.691 31.2891 149.71 31.3721 149.724H31.4365C31.5258 149.736 31.6159 149.743 31.7061 149.744H118.22C118.311 149.743 118.402 149.736 118.492 149.724H118.557C118.636 149.711 118.714 149.693 118.791 149.671H118.814C118.899 149.644 118.982 149.613 119.063 149.577L119.116 149.551C119.183 149.519 119.248 149.483 119.31 149.442L119.351 149.419C119.421 149.372 119.488 149.319 119.553 149.267L119.603 149.22C119.655 149.173 119.705 149.123 119.752 149.07L119.787 149.029C119.844 148.963 119.896 148.892 119.942 148.818L119.969 148.777C120.014 148.703 120.055 148.625 120.092 148.546C120.129 148.459 120.16 148.37 120.186 148.279C120.187 148.267 120.187 148.254 120.186 148.241C120.206 148.165 120.221 148.088 120.232 148.01C120.232 147.992 120.232 147.975 120.232 147.96C120.242 147.88 120.247 147.8 120.247 147.72V100.476C120.247 99.9357 120.034 99.4176 119.655 99.0337C119.275 98.6497 118.76 98.431 118.22 98.4248ZM33.792 102.526H37.1201V138.837L33.792 142.449V102.526ZM36.4287 145.654L40.2373 141.535C40.7803 141.441 41.3145 141.358 41.8398 141.286C47.0857 140.513 52.4256 140.649 57.625 141.69C60.0871 142.193 62.4962 142.927 64.8203 143.882C66.0851 144.403 67.3195 144.994 68.5176 145.654H36.4287ZM73 143.554C72.1211 142.968 71.0576 142.332 69.8418 141.69C66.1778 139.769 62.2554 138.388 58.1963 137.589C55.1089 136.977 51.9687 136.672 48.8213 136.678C46.2781 136.683 43.7385 136.869 41.2217 137.234V99.1982C41.5146 99.1191 41.8691 99.0312 42.2559 98.9404C45.6433 98.1436 49.1151 97.7619 52.5947 97.8037C59.4648 97.9267 65.125 99.8545 69.4932 103.578C70.7896 104.68 71.9616 105.921 72.9883 107.278L73 143.554ZM77.1016 143.554V107.278C78.1341 105.918 79.3131 104.675 80.6172 103.572C84.9854 99.8603 90.6426 97.9267 97.5098 97.8037C100.973 97.7635 104.429 98.1412 107.802 98.9287C108.206 99.0254 108.569 99.1162 108.883 99.1982V137.234C103.248 136.392 97.5107 136.515 91.917 137.598C87.8577 138.396 83.9353 139.778 80.2715 141.699C79.0293 142.332 77.9775 142.968 77.0898 143.554H77.1016ZM81.5957 145.654C82.7944 144.996 84.0287 144.404 85.293 143.882C87.6086 142.925 90.0101 142.192 92.4648 141.69C97.8561 140.626 103.392 140.517 108.821 141.368C109.182 141.421 109.533 141.477 109.876 141.538L113.605 145.654H81.5957ZM116.181 142.388L112.961 138.849V102.52H116.169L116.181 142.388Z" fill="#2E7D32"/>
<path d="M100.53 130.27C101.058 130.37 101.604 130.259 102.05 129.961C102.497 129.663 102.809 129.202 102.919 128.676C103.029 128.15 102.929 127.603 102.639 127.15C102.35 126.698 101.895 126.377 101.371 126.257C89.7959 123.834 83.1133 129.802 82.835 130.065C82.6347 130.247 82.4723 130.466 82.3572 130.711C82.242 130.955 82.1762 131.22 82.1638 131.49C82.1513 131.76 82.1923 132.03 82.2844 132.284C82.3765 132.538 82.518 132.771 82.7006 132.971C82.8832 133.17 83.1034 133.331 83.3486 133.445C83.5937 133.559 83.8589 133.623 84.1289 133.634C84.399 133.645 84.6685 133.602 84.9221 133.509C85.1757 133.415 85.4082 133.273 85.6065 133.089C85.6592 133.033 90.9912 128.272 100.53 130.27Z" fill="#2E7D32"/>
<path d="M83.9512 124.432C84.4642 124.432 84.9587 124.239 85.3369 123.893C85.3896 123.843 90.7217 119.082 100.261 121.08C100.524 121.135 100.796 121.138 101.061 121.088C101.326 121.038 101.578 120.937 101.804 120.789C102.029 120.642 102.224 120.451 102.376 120.229C102.528 120.006 102.634 119.756 102.689 119.492C102.745 119.228 102.747 118.956 102.697 118.692C102.648 118.427 102.546 118.174 102.398 117.949C102.251 117.723 102.061 117.529 101.838 117.377C101.616 117.225 101.365 117.119 101.102 117.063C89.5264 114.644 82.8467 120.611 82.5654 120.872C82.2598 121.151 82.0457 121.516 81.9513 121.919C81.8569 122.322 81.8866 122.744 82.0365 123.13C82.1864 123.515 82.4495 123.847 82.7913 124.08C83.133 124.314 83.5373 124.438 83.9512 124.437V124.432Z" fill="#2E7D32"/>
<path d="M48.1885 126.257C47.9206 126.308 47.6655 126.411 47.4382 126.562C47.2108 126.712 47.0158 126.907 46.8644 127.133C46.713 127.36 46.6084 127.615 46.5567 127.882C46.5049 128.15 46.507 128.425 46.5629 128.692C46.6188 128.959 46.7274 129.212 46.8822 129.437C47.0371 129.661 47.2351 129.852 47.4648 129.999C47.6944 130.146 47.9511 130.246 48.2197 130.292C48.4884 130.339 48.7636 130.332 49.0293 130.271C58.4307 128.302 63.7129 132.872 63.9707 133.089C64.3752 133.437 64.8995 133.614 65.4323 133.582C65.9651 133.55 66.4644 133.311 66.8241 132.917C67.1838 132.522 67.3755 132.003 67.3586 131.47C67.3416 130.936 67.1174 130.43 66.7334 130.06C66.4434 129.802 59.7578 123.831 48.1885 126.257Z" fill="#2E7D32"/>
<path d="M48.4551 117.063C47.9224 117.175 47.4559 117.493 47.1581 117.949C46.8603 118.404 46.7557 118.96 46.8672 119.492C46.9787 120.025 47.2972 120.491 47.7527 120.789C48.2081 121.087 48.7633 121.192 49.2959 121.08C58.7002 119.111 63.9824 123.679 64.2373 123.898C64.6394 124.265 65.1706 124.456 65.7139 124.431C66.2573 124.406 66.7684 124.166 67.1348 123.764C67.5011 123.362 67.6927 122.83 67.6675 122.287C67.6422 121.744 67.4021 121.233 67 120.866C66.7129 120.611 60.0303 114.641 48.4551 117.063Z" fill="#2E7D32"/>
<path d="M75.8711 13.1006C75.3555 13.1006 74.8369 13.1006 74.3447 13.1328C67.34 13.4556 60.651 16.1407 55.3672 20.7507C50.0834 25.3607 46.5162 31.624 45.2467 38.5202C43.9772 45.4165 45.0801 52.5395 48.3758 58.7289C51.6716 64.9183 56.9659 69.8094 63.3965 72.6055L63.5664 72.8164L63.6719 72.7285C67.4774 74.3474 71.5685 75.1881 75.7041 75.2012H75.7891C79.9363 75.2166 84.0438 74.3941 87.8654 72.7832C91.6869 71.1722 95.1437 68.8059 98.0283 65.8262C99.1851 64.6426 100.246 63.3691 101.201 62.0176C104.866 56.8178 106.835 50.6133 106.841 44.252C106.854 40.1728 106.062 36.1311 104.513 32.3578C102.963 28.5844 100.685 25.1533 97.8094 22.2605C94.9334 19.3677 91.5157 17.0698 87.7515 15.4981C83.9872 13.9264 79.9503 13.1117 75.8711 13.1006ZM52.3135 57.4238C50.0111 53.3509 48.8086 48.7489 48.8242 44.0703C48.8297 42.993 48.8982 41.917 49.0293 40.8477C50.2393 43.5547 51.0801 45.9658 50.9336 46.9678L50.8574 47.5537L51.1504 48.0664C53.0767 51.0899 55.9958 53.3481 59.4063 54.4531C59.4971 55.3965 59.1689 57.6758 58.6299 59.6387L58.416 60.4268L58.8789 61.1006C59.1045 61.4258 61.0381 64.165 63.4639 65.6299C63.6514 66.0518 63.8359 66.8779 63.2236 67.9941C58.6508 65.5867 54.8644 61.9182 52.3135 57.4238ZM97.8438 59.6416C94.4283 64.5156 89.493 68.1195 83.8106 69.8891C78.1281 71.6586 72.0193 71.494 66.4404 69.4209C67.7764 66.749 67.0088 64.3877 66.1475 63.2686L65.9072 62.9551L65.5586 62.7764C64.3135 62.1289 63.001 60.6787 62.2539 59.7324C63.5078 54.7139 63.0654 51.8633 60.9385 51.251C58.3347 50.4925 56.0544 48.8951 54.4522 46.707C54.3731 43.6221 51.8564 38.3809 50.2861 35.3984C50.3828 35.1055 50.4824 34.8301 50.5791 34.5488C51.905 31.0694 53.9415 27.9045 56.5586 25.2559C59.4033 22.3709 62.8579 20.1595 66.6689 18.7842C69.1933 17.8801 71.8389 17.3597 74.5176 17.2402C74.9219 17.2197 75.3379 17.2109 75.7598 17.2109H75.8389C77.1689 17.2144 78.4968 17.3172 79.8115 17.5186C79.2461 18.8252 78.7217 20.2373 78.5869 21.2188C78.3906 21.415 78.0244 21.7168 77.7637 21.9336C76.5361 22.9473 75.0068 24.21 75.0537 26.0352C75.0742 26.7412 75.3467 27.7783 76.6094 28.7012C78.9033 30.3975 82.2871 32.0029 86.9453 33.6084C88.1523 34.0244 90.6221 34.877 91.1611 35.4629C91.3486 36.3418 91.9111 37.2588 92.5586 38.3135C92.9136 38.8625 93.2327 39.434 93.5137 40.0244C93.4697 40.1504 93.4053 40.3174 93.3525 40.4463C92.8955 41.6182 91.6768 44.7061 94.6943 46.2676C96.2529 47.0498 98.7227 48.2598 99.8945 48.7578C100.501 49.8246 101.051 50.9228 101.541 52.0479C100.717 54.7583 99.4691 57.3213 97.8438 59.6416ZM102.634 46.5137C102.127 45.8193 101.811 45.7109 101.5 45.6025C101.058 45.4502 98.5703 44.2783 96.3291 43.124C96.2993 43.109 96.2708 43.0914 96.2441 43.0713C96.2236 42.7783 96.5049 42.0664 96.6455 41.7119C96.8129 41.3211 96.9452 40.9162 97.041 40.502C97.2842 39.2422 96.4932 37.9502 95.5762 36.4561C95.213 35.9068 94.8955 35.3287 94.627 34.7275C94.2461 32.3838 91.2695 31.3525 88.1143 30.2656C83.8574 28.8008 80.6963 27.3125 78.7217 25.8535C79.1276 25.4162 79.5674 25.0116 80.0371 24.6436C81.1006 23.7646 82.1025 22.9385 82.1025 21.6846C82.1348 21.251 82.665 19.833 83.3506 18.292C88.9614 19.9257 93.8887 23.34 97.3888 28.0197C100.889 32.6994 102.772 38.3906 102.754 44.2344C102.734 44.9961 102.69 45.7559 102.622 46.5137H102.634Z" fill="#2E7D32"/>
<path d="M80.6142 33.2305C78.6578 33.2275 76.7534 33.8609 75.1885 35.0352C73.844 34.0284 72.2459 33.4157 70.573 33.2658C68.9 33.1159 67.2184 33.4347 65.7164 34.1865C64.2145 34.9382 62.9514 36.0933 62.0687 37.5223C61.186 38.9512 60.7186 40.5977 60.7187 42.2774V43.6455C60.7143 45.0992 61.0419 46.5348 61.6766 47.8427C62.3112 49.1506 63.2362 50.2962 64.3808 51.1924L72.4726 57.5703C73.2457 58.1832 74.2033 58.5167 75.1899 58.5167C76.1765 58.5167 77.1341 58.1832 77.9072 57.5703L86.0019 51.1924C87.1457 50.2957 88.0699 49.1498 88.704 47.842C89.3381 46.5342 89.6654 45.0989 89.6611 43.6455V42.2774C89.658 39.8789 88.7039 37.5796 87.0079 35.8837C85.312 34.1877 83.0127 33.2336 80.6142 33.2305ZM85.5596 43.6455C85.562 44.4784 85.3743 45.3008 85.0108 46.0502C84.6473 46.7996 84.1175 47.4561 83.4619 47.9697L75.3672 54.3506C75.3162 54.3893 75.2539 54.4103 75.1899 54.4103C75.1259 54.4103 75.0637 54.3893 75.0127 54.3506L66.918 47.9697C66.2623 47.4561 65.7325 46.7996 65.369 46.0502C65.0055 45.3008 64.8178 44.4784 64.8203 43.6455V42.2774C64.8179 41.2541 65.133 40.2552 65.7222 39.4186C66.3114 38.5819 67.1456 37.9486 68.1098 37.606C69.074 37.2633 70.1208 37.2283 71.1058 37.5056C72.0908 37.7829 72.9655 38.3589 73.6094 39.1543C73.8017 39.3902 74.0441 39.5802 74.319 39.7108C74.5939 39.8413 74.8944 39.9091 75.1987 39.9091C75.503 39.9091 75.8035 39.8413 76.0784 39.7108C76.3533 39.5802 76.5957 39.3902 76.7881 39.1543C77.4319 38.3589 78.3066 37.7829 79.2916 37.5056C80.2766 37.2283 81.3234 37.2633 82.2876 37.606C83.2519 37.9486 84.0861 38.5819 84.6752 39.4186C85.2644 40.2552 85.5795 41.2541 85.5771 42.2774L85.5596 43.6455Z" fill="#2E7D32"/>
</svg>
