<svg width="100" height="85" viewBox="0 0 100 85" fill="none" xmlns="http://www.w3.org/2000/svg">
<path d="M22.329 24.8687H0V19.4387H2.73213V5.42998H0V0H22.329V8.28134H16.7405V5.42998H9.88536V9.57059H16.3183V15.0006H9.88536V19.4387H16.7654V16.5626H22.3538V24.8687H22.329ZM36.7099 24.8687H24.3905V19.4387H27.3959V5.42998H24.3905V0H37.008V5.42998H34.5739V9.7194H37.157C40.4356 9.7194 42.4474 8.15736 42.4474 5.42998H40.3114V0H52.1841V5.42998H49.1784C49.1784 9.14911 46.5953 12.298 44.0122 13.7113C44.7325 17.5792 46.943 19.4387 51.8112 19.1412L57.251 5.42998H55.3878V0H69.4214L76.872 19.4387H79.4558V24.8687H66.8383V19.4387H68.8498L68.2782 17.5792H59.9824L59.4115 19.4387H61.6965V24.8687H56.7535C48.1601 24.8687 47.0424 24.8687 43.888 23.5794C40.8827 22.2901 38.5976 19.1412 37.4551 15.1493H34.5987V19.4387H36.7348V24.8687H36.7099ZM61.8211 12.1492H66.2667L63.9816 6.14901L61.8211 12.1492ZM36.7845 54.1263H24.4153V48.6215H27.3213V34.5881H24.3905V29.3069H39.6159C46.2724 29.3069 49.6255 32.9269 49.6255 37.5386C49.5758 40.6379 47.862 43.4399 45.1299 44.9028C45.577 47.6049 47.9117 48.6215 50.8177 48.6215H55.462V34.5881H51.5131V29.3069H66.4654V34.5881H62.5165V48.6215H66.4654V54.1263H50.4951C43.2422 54.1263 39.8146 51.3242 38.1257 46.0433H34.5987V48.6215H36.7348V54.1263H36.7845ZM34.6484 40.6627H38.0015C40.2369 40.6627 42.0997 39.8693 42.0997 37.6378C42.0997 35.2575 40.2369 34.6129 38.0015 34.6129H34.6484V40.6627ZM22.329 45.8942H16.7405V48.7705H9.88536V44.3319H16.3183V38.9023H9.88536V34.7616H16.7654V37.613H22.3538V29.3317H0V34.7616H2.73213V48.7705H0V54.2005H22.329V45.8942ZM75.3075 0V8.13252H80.5976V5.40515H83.6033V19.414H81.0202V24.8439H93.6377V19.414H90.9055V5.42998H93.9112V8.15736H99.3503V0H75.3075ZM86.2858 34.5881H89.3159V43.5637L79.2816 29.3069H68.5762V34.5881H71.5322V48.6215H68.6014V54.1263H81.5414V48.6215H78.6358V39.9933L88.4218 54.1263H96.4195V34.5881H99.1264V29.3069H86.3109V34.5881H86.2858ZM22.9499 75.9204C22.9499 79.6391 20.2426 83.3339 14.9771 83.3339H0V77.9536H2.58311V63.92H0V58.4152H13.2136C18.3053 58.4152 20.8139 61.6637 20.8139 65.1598C20.8139 66.7214 20.2426 68.3082 18.9014 69.7712C21.8322 71.0852 22.9499 73.4654 22.9499 75.9204ZM9.91019 68.1599H11.8227C13.3875 68.1599 14.1823 67.1433 14.1823 66.0274C14.1823 64.9114 13.3875 63.8948 11.8227 63.8948H9.91019V68.1599ZM15.8712 75.5734C15.8464 74.1846 14.7038 73.0687 13.3129 73.0938H9.91019V77.9284H13.1639C14.8529 77.9284 15.8712 76.6887 15.8712 75.5734ZM86.9812 68.8785H99.0026V78.1768C97.3136 81.3252 93.4886 83.7803 87.7508 83.7803C84.3729 83.7803 81.666 82.8876 80.2254 81.7471C74.8108 85.0446 65.3473 84.3505 61.9946 75.2257H58.7657V77.9284H60.9766V83.3087H48.6071V77.9536H51.6867V63.92H47.2659V73.2422C47.2659 80.21 42.3232 84.028 35.8903 84.028C30.277 84.028 24.5395 80.6557 24.5395 73.2422V63.92H22.18V58.4152H34.7726V63.92H32.0653V73.5899C32.0653 76.3913 34.2013 77.9781 36.238 77.9781C38.2747 77.9781 40.1872 76.5151 40.1872 73.5899V63.92H36.9335V58.4152H63.4849C70.1413 58.4152 73.494 62.0352 73.494 66.6473C73.4444 69.7467 71.7057 72.5978 68.9491 74.0608C70.2155 77.8046 74.1153 78.5238 75.9533 76.7383C75.0592 74.9535 74.7114 72.9203 74.7114 70.8872C74.7114 64.2174 78.8597 57.9688 87.4283 57.9688C92.3713 57.9688 95.3518 59.3821 97.7362 61.3663V67.1923H91.452L91.4023 64.5644C90.434 63.9697 89.2908 63.6968 87.8754 63.6968C84.1497 63.6968 81.9143 66.3499 81.9143 70.7633C81.9143 74.8045 84.2736 77.8291 87.8754 77.9284C89.7875 77.9284 91.2533 77.5317 92.7183 76.2675V74.1846H87.0057L86.9812 68.8785ZM66.1176 66.9201C66.1176 64.5399 64.2797 63.8948 62.0198 63.8948H58.7412V69.9699H62.0198C64.2797 69.9447 66.1428 69.1513 66.1176 66.9201Z" fill="white"/>
</svg>
