<svg width="150" height="150" viewBox="0 0 150 150" fill="none" xmlns="http://www.w3.org/2000/svg">
<g clip-path="url(#clip0_6405_13880)">
<path d="M30.0002 130C30.6403 130 31.2802 129.755 31.7677 129.268C32.7453 128.29 32.7453 126.71 31.7677 125.733L9.12538 103.103C8.9578 102.956 5.0004 99.4253 5.0004 92.5004V55.0006C5.0004 52.2432 7.24277 50.0005 10.0005 50.0005C12.7555 50.0005 15.0006 52.2429 15.0006 55.0006V74.7929C15.0006 76.1728 16.1179 77.2905 17.5004 77.2905C18.883 77.2905 20.0003 76.1731 20.0003 74.7929V55.0006C20.0003 49.4855 15.5153 45.0007 10.0005 45.0007C4.48536 45.0007 0.000610352 49.4858 0.000610352 55.0006V92.5004C0.000610352 101.835 5.64815 106.708 5.73311 106.768L28.233 129.268C28.7202 129.755 29.3604 130 30.0002 130Z" fill="#2E7D32"/>
<path d="M47.5 60.0004H40.0001C38.6176 60.0004 37.5002 61.1204 37.5002 62.5003V70.0002C37.5002 70.3503 37.5652 78.6003 43.2327 84.2678C48.9001 89.9352 57.1501 90.0002 57.5002 90.0002H65.0002C66.3827 90.0002 67.5001 88.8802 67.5001 87.5004V80.0004C67.5001 79.6503 67.435 71.4003 61.7676 65.7329C56.1001 60.0654 47.8501 60.0004 47.5 60.0004ZM62.5 85.0002H57.4999C57.4375 85.0002 50.9849 84.9501 46.7673 80.7328C42.5899 76.5554 42.5 70.0579 42.5 70.0002V65.0001H47.5C47.5624 65.0001 54.0124 65.0476 58.2326 69.2675C62.41 73.4449 62.5 79.9424 62.5 80.0001V85.0002Z" fill="#2E7D32"/>
<path d="M57.5002 135H55.0003V115C55.0003 105.8 49.3779 100.82 49.2678 100.733L31.768 83.2327C29.888 81.3501 27.4654 80.2552 24.9529 80.1527C22.3004 80.0552 19.8281 81.0328 17.9305 82.9303C16.0306 84.8279 15.0457 87.3228 15.1505 89.9504C15.2554 92.4656 16.3505 94.8878 18.2331 96.7678L30.7332 109.268C31.7108 110.245 33.2908 110.245 34.2681 109.268C35.2455 108.29 35.2455 106.71 34.2681 105.733L21.7681 93.2305C20.7755 92.2406 20.2007 91.0031 20.1506 89.748C20.0982 88.5131 20.5555 87.3779 21.4657 86.4656C22.3783 85.5556 23.4831 85.0957 24.7482 85.1505C26.0032 85.2005 27.2431 85.7753 28.233 86.7679L45.8503 104.378C46.0179 104.528 50.0002 108.165 50.0002 115V135H17.5001C16.1176 135 15.0002 136.12 15.0002 137.5V147.5C15.0002 148.88 16.1176 150 17.5001 150C18.8827 150 20 148.88 20 147.5V140H55V147.5C55 148.88 56.1174 150 57.4999 150C58.8824 150 59.9998 148.88 59.9998 147.5V137.5C60.0001 136.12 58.8827 135 57.5002 135Z" fill="#2E7D32"/>
<path d="M95.0001 30.0005C95.0001 19.0904 87.1052 11.068 86.7677 10.7332L76.7675 0.733005C75.7899 -0.244335 74.2099 -0.244335 73.2326 0.733005L63.2327 10.7329C62.8952 11.0677 55.0003 19.0904 55.0003 30.0002C55.0003 40.91 62.8952 48.9326 63.2327 49.2675L72.5028 58.5376V107.505C72.5028 108.887 73.6202 110.005 75.0027 110.005C76.3852 110.005 77.5026 108.887 77.5026 107.505V58.5329L86.7677 49.2678C87.1049 48.9329 95.0001 40.9106 95.0001 30.0005ZM77.5026 51.463V17.5004C77.5026 16.1205 76.3852 15.0005 75.0027 15.0005C73.6202 15.0005 72.5028 16.1205 72.5028 17.5004V51.4677L66.7679 45.7328C66.7006 45.6654 60.0004 38.8627 60.0004 30.0005C60.0004 21.2006 66.7052 14.3331 66.7679 14.2681L75.0003 6.03572L83.2327 14.2681C83.3001 14.3355 90.0003 21.1382 90.0003 30.0005C90.0003 38.8003 83.2954 45.6678 83.2327 45.7328L77.5026 51.463Z" fill="#2E7D32"/>
<path d="M140 45.0004C134.485 45.0004 130 49.4855 130 55.0003V74.7926C130 76.1725 131.117 77.2901 132.5 77.2901C133.882 77.2901 135 76.1728 135 74.7926V55.0003C135 52.2429 137.242 50.0002 140 50.0002C142.755 50.0002 145 52.2426 145 55.0003V92.5001C145 99.425 141.043 102.955 140.733 103.233L118.233 125.733C117.255 126.71 117.255 128.29 118.233 129.268C118.72 129.755 119.36 130 120 130C120.64 130 121.28 129.755 121.768 129.268L144.11 106.91C144.352 106.708 150 101.835 150 92.5001V55.0003C150 49.4855 145.515 45.0004 140 45.0004Z" fill="#2E7D32"/>
<path d="M132.5 135H99.9999V115C99.9999 108.165 103.982 104.528 104.267 104.267L121.767 86.7676C122.757 85.775 123.997 85.2002 125.252 85.1501C126.527 85.0951 127.622 85.555 128.534 86.4653C129.444 87.3779 129.902 88.5128 129.849 89.7477C129.799 91.0028 129.225 92.2402 128.232 93.2328L115.732 105.733C114.754 106.711 114.754 108.29 115.732 109.268C116.709 110.245 118.29 110.245 119.267 109.268L131.767 96.7678C133.65 94.8878 134.742 92.4653 134.85 89.9504C134.954 87.3228 133.969 84.8279 132.07 82.9303C130.172 81.0328 127.702 80.0504 125.047 80.1527C122.535 80.2552 120.112 81.3501 118.232 83.2327L100.862 100.613C100.622 100.82 94.9995 105.8 94.9995 115V135H92.4996C91.1171 135 89.9997 136.12 89.9997 137.5V147.5C89.9997 148.88 91.1171 150 92.4996 150C93.8821 150 94.9995 148.88 94.9995 147.5V140H129.999V147.5C129.999 148.88 131.117 150 132.499 150C133.882 150 134.999 148.88 134.999 147.5V137.5C135 136.12 133.882 135 132.5 135Z" fill="#2E7D32"/>
<path d="M106.767 84.2678C112.435 78.6003 112.5 70.3503 112.5 70.0002V62.5003C112.5 61.1204 111.382 60.0004 110 60.0004H102.5C102.15 60.0004 93.9 60.0654 88.2325 65.7329C82.565 71.4003 82.5 79.6503 82.5 80.0004V87.5004C82.5 88.8802 83.6174 90.0002 84.9999 90.0002H92.4999C92.85 90.0002 101.1 89.9352 106.767 84.2678ZM87.5001 85.0002V80.0001C87.5001 79.9351 87.5475 73.4851 91.7674 69.2675C95.9449 65.0901 102.442 65.0001 102.5 65.0001H107.5V70.0002C107.5 70.0653 107.45 76.5126 103.233 80.7328C99.0852 84.8803 92.6501 84.9978 92.4952 85.0002H87.5001Z" fill="#2E7D32"/>
</g>
<defs>
<clipPath id="clip0_6405_13880">
<rect width="150" height="150" fill="white"/>
</clipPath>
</defs>
</svg>
