<svg width="150" height="150" viewBox="0 0 150 150" fill="none" xmlns="http://www.w3.org/2000/svg">
<path d="M83.9854 121.184C85.1191 121.184 86.0361 120.267 86.0361 119.133V109.708C86.0361 108.574 85.1191 107.657 83.9854 107.657H64.6436C63.5098 107.657 62.5928 108.574 62.5928 109.708V119.133C62.5928 120.267 63.5098 121.184 64.6436 121.184H83.9854ZM66.6943 111.759H81.9346V117.082H66.6943V111.759Z" fill="#2E7D32"/>
<path d="M113.927 121.184C115.061 121.184 115.978 120.267 115.978 119.133V109.708C115.978 108.574 115.061 107.657 113.927 107.657H94.585C93.4512 107.657 92.5342 108.574 92.5342 109.708V119.133C92.5342 120.267 93.4512 121.184 94.585 121.184H113.927ZM96.6387 111.759H111.879V117.082H96.6387V111.759Z" fill="#2E7D32"/>
<path d="M48.627 40.8574C50.8623 42.3809 53.5107 43.207 56.2471 43.207C57.3838 43.207 58.4971 43.0664 59.5811 42.791C62.7568 51.5918 71.1299 57.5654 80.6543 57.5654C93.0117 57.5654 103.063 47.5137 103.063 35.1562C103.063 22.7988 93.0147 12.7441 80.6572 12.7441C74.6982 12.7441 69.0586 15.0879 64.8779 19.2422C62.4668 17.2441 59.4229 16.1309 56.25 16.1309C51.8467 16.1309 47.7803 18.252 45.2549 21.7705C44.2998 21.498 43.3096 21.3604 42.2959 21.3604C36.3545 21.3604 31.5205 26.1943 31.5205 32.1357C31.5205 38.0771 36.3545 42.9111 42.2959 42.9111C44.6074 42.9111 46.8018 42.1934 48.627 40.8574ZM35.6221 32.1357C35.6221 28.4561 38.6162 25.4619 42.2959 25.4619C43.3154 25.4619 44.2969 25.6875 45.208 26.1299C46.2012 26.6133 47.3965 26.2236 47.915 25.248C49.5615 22.1543 52.7549 20.2354 56.25 20.2354C59.001 20.2354 61.6084 21.4365 63.4072 23.5283C63.7969 23.9824 64.3652 24.2432 64.9629 24.2432C64.9688 24.2432 64.9746 24.2432 64.9834 24.2432C65.5869 24.2373 66.1582 23.9648 66.5449 23.499C70.04 19.2744 75.1846 16.8486 80.6602 16.8486C90.7559 16.8486 98.9678 25.0605 98.9678 35.1562C98.9678 45.252 90.7559 53.4639 80.6602 53.4639C74.209 53.4639 68.4082 50.1094 65.1328 44.8682C65.124 44.8506 65.1152 44.833 65.1035 44.8154C64.544 43.916 64.0664 42.9756 63.6738 42C63.6709 41.9941 63.668 41.9883 63.665 41.9824C63.6123 41.8535 63.5654 41.7217 63.5156 41.5928C63.4775 41.4961 63.4424 41.3965 63.4072 41.2998C63.3691 41.1914 63.3311 41.083 63.2959 40.9746C63.252 40.8457 63.2109 40.7168 63.1729 40.5879C63.1436 40.4971 63.1172 40.4033 63.0879 40.3096C63.041 40.1484 62.9971 39.9844 62.9531 39.8203C62.5576 38.3086 62.3496 36.7441 62.3496 35.1592C62.3496 33.5947 62.5459 32.0391 62.9356 30.5391C63.2197 29.4434 62.5635 28.3242 61.4648 28.0371C60.3691 27.7529 59.25 28.4092 58.9629 29.5078C58.4854 31.3447 58.2451 33.2461 58.2451 35.1592C58.2451 36.3926 58.3477 37.6172 58.5469 38.8242C57.7998 39.0117 57.0293 39.1113 56.2441 39.1113C54.123 39.1113 52.0781 38.3994 50.4229 37.0957C50.3115 37.0078 50.2002 36.917 50.0918 36.8232C50.042 36.7793 49.9922 36.7383 49.9424 36.6943C48.7559 35.6309 47.8594 34.292 47.332 32.7861C46.96 31.7168 45.7881 31.1514 44.7188 31.5264C43.6494 31.8984 43.084 33.0703 43.459 34.1396C43.9453 35.5312 44.6572 36.8174 45.5508 37.9688C44.5664 38.5225 43.4531 38.8184 42.29 38.8184C38.6162 38.8096 35.6221 35.8154 35.6221 32.1357Z" fill="#2E7D32"/>
<path d="M21.2051 109.474L18.2813 134.971C18.2139 135.551 18.3984 136.134 18.7881 136.57C19.1777 137.007 19.7344 137.256 20.3174 137.256H52.8633H129.683C130.816 137.256 131.733 136.339 131.733 135.205V81.4307C131.733 80.2969 130.816 79.3799 129.683 79.3799H117.366C116.232 79.3799 115.315 80.2969 115.315 81.4307V89.6982L108.507 80.2324C108.12 79.6963 107.502 79.3799 106.843 79.3799H94.5879C93.4541 79.3799 92.5371 80.2969 92.5371 81.4307V89.6982L85.7285 80.2324C85.3418 79.6963 84.7236 79.3799 84.0645 79.3799H71.8096C70.6758 79.3799 69.7588 80.2969 69.7588 81.4307V89.6953L62.9531 80.2324C62.5664 79.6963 61.9482 79.3799 61.2891 79.3799H55.4648C54.3311 79.3799 53.4141 80.2969 53.4141 81.4307C53.4141 82.5645 54.3311 83.4814 55.4648 83.4814H60.2402L70.1484 97.2568C70.667 97.9805 71.5957 98.2852 72.4424 98.0127C73.2891 97.7402 73.8633 96.9522 73.8633 96.0615V83.4814H83.0156L92.9268 97.2598C93.4453 97.9834 94.374 98.2881 95.2207 98.0127C96.0674 97.7402 96.6416 96.9522 96.6416 96.0615V83.4814H105.794L115.705 97.2598C116.224 97.9834 117.152 98.2881 117.999 98.0127C118.846 97.7402 119.42 96.9522 119.42 96.0615V83.4814H127.635V133.154H54.6914L48.7324 81.1963C48.7324 81.1904 48.7295 81.1875 48.7295 81.1816L46.3301 60.2783C46.3301 60.2666 46.3272 60.252 46.3447 60.2344C46.3623 60.2168 46.377 60.2168 46.3857 60.2168C48.6797 60.2168 50.5459 58.3506 50.5459 56.0596V47.8594C50.5459 46.7256 49.6289 45.8086 48.4951 45.8086H24.6856C23.5518 45.8086 22.6348 46.7256 22.6348 47.8594V56.0596C22.6348 58.3535 24.501 60.2168 26.7949 60.2168C26.8066 60.2168 26.8213 60.2168 26.8389 60.2344C26.8564 60.252 26.8535 60.2666 26.8535 60.2783L23.1123 92.8535C22.9834 93.9785 23.792 94.9951 24.917 95.124C26.042 95.2529 27.0586 94.4443 27.1875 93.3193L30.9258 60.7441C31.0605 59.5664 30.6856 58.3857 29.8975 57.501C29.1094 56.6162 27.9785 56.1094 26.7949 56.1094C26.7627 56.1094 26.7393 56.083 26.7393 56.0537V49.9043H46.4473V56.0537C46.4473 56.0859 46.4209 56.1094 46.3887 56.1094C45.2051 56.1094 44.0742 56.6162 43.2861 57.501C42.4981 58.3857 42.1231 59.5664 42.2578 60.7441L50.5664 133.151H22.6172L25.2803 109.937C25.4092 108.812 24.6006 107.795 23.4756 107.666C22.3506 107.537 21.334 108.349 21.2051 109.474Z" fill="#2E7D32"/>
<path d="M22.4912 102.536C22.5645 102.647 22.6523 102.753 22.7461 102.847C22.8398 102.943 22.9453 103.028 23.0566 103.102C23.168 103.178 23.2881 103.239 23.4111 103.292C23.5371 103.342 23.666 103.383 23.7949 103.409C23.9268 103.436 24.0645 103.447 24.1963 103.447C24.7354 103.447 25.2656 103.228 25.6465 102.847C25.7402 102.753 25.8281 102.647 25.9014 102.536C25.9746 102.425 26.0391 102.305 26.0889 102.182C26.1416 102.059 26.1797 101.93 26.2061 101.798C26.2324 101.666 26.2471 101.531 26.2471 101.396C26.2471 101.265 26.2324 101.13 26.2061 100.995C26.1797 100.866 26.1416 100.737 26.0889 100.614C26.0391 100.488 25.9746 100.371 25.9014 100.26C25.8281 100.146 25.7402 100.043 25.6465 99.9463C25.2656 99.5654 24.7354 99.3457 24.1963 99.3457C23.6572 99.3457 23.127 99.5654 22.7461 99.9463C22.6523 100.043 22.5645 100.146 22.4912 100.26C22.418 100.371 22.3535 100.488 22.3037 100.614C22.251 100.737 22.2129 100.866 22.1865 100.995C22.1602 101.13 22.1455 101.265 22.1455 101.396C22.1455 101.531 22.1602 101.666 22.1865 101.798C22.2129 101.93 22.251 102.059 22.3037 102.182C22.3535 102.305 22.418 102.425 22.4912 102.536Z" fill="#2E7D32"/>
</svg>
